<svg xmlns="http://www.w3.org/2000/svg" viewBox="0 0 32 40" x="0px" y="0px"><title>Artboard 14</title><g><path d="M29,13a1,1,0,0,0-1,1v2.22L26,16.73a2.3,2.3,0,0,0,0-.26.58.58,0,0,1-.19,0L9.14,8.74a10,10,0,0,0-2.22,3.1L4,10.38V3A1,1,0,0,0,2,3v8a1,1,0,0,0,.55.89l3.71,1.86A10.41,10.41,0,0,0,6,16c0,.25,0,.49,0,.73l-2-.51V14a1,1,0,0,0-2,0v3a1,1,0,0,0,.76,1l3.67.92a9.86,9.86,0,0,0,1,2.27l-5,3a1,1,0,0,0-.48.74,1,1,0,0,0,.28.83l4,4a1,1,0,0,0,1.42,0,1,1,0,0,0,0-1.42L4.61,25.2l3.9-2.34a.5.5,0,0,0,.13-.12,9.94,9.94,0,0,0,14.72,0,.5.5,0,0,0,.13.12l3.9,2.34-3.1,3.09a1,1,0,0,0,0,1.42,1,1,0,0,0,1.42,0l4-4a1,1,0,0,0,.28-.83,1,1,0,0,0-.48-.74l-5-3a9.85,9.85,0,0,0,1-2.27L29.24,18A1,1,0,0,0,30,17V14A1,1,0,0,0,29,13ZM12,21a3,3,0,1,1,3-3A3,3,0,0,1,12,21Zm4,3a1.5,1.5,0,1,1,1.5-1.5A1.5,1.5,0,0,1,16,24Zm4-3a3,3,0,1,1,3-3A3,3,0,0,1,20,21Z"/><path d="M29,2a1,1,0,0,0-1,1v7.38l-2.92,1.46h0A10,10,0,0,0,11,7.38l13.15,6.07h0a1,1,0,0,1,.13-1.1,1,1,0,0,0-.13,1.1l1.09.5a.76.76,0,0,0,.25-.06l.09,0-.09,0a.76.76,0,0,1-.25.06l.64.3c0-.17-.08-.33-.11-.49h0l3.72-1.86A1,1,0,0,0,30,11V3A1,1,0,0,0,29,2ZM24.55,12.11a.92.92,0,0,0-.31.24.92.92,0,0,1,.31-.24l.33-.17Z"/><path d="M13,18a1,1,0,1,1-1-1A1,1,0,0,1,13,18Zm3,4a.5.5,0,1,0,.5.5A.5.5,0,0,0,16,22Zm4-5a1,1,0,1,0,1,1A1,1,0,0,0,20,17Z"/></g><text x="0" y="47" fill="#000000" font-size="5px" font-weight="bold" font-family="'Helvetica Neue', Helvetica, Arial-Unicode, Arial, Sans-serif">Created by ronin design</text><text x="0" y="52" fill="#000000" font-size="5px" font-weight="bold" font-family="'Helvetica Neue', Helvetica, Arial-Unicode, Arial, Sans-serif">from the Noun Project</text></svg>