<?xml version="1.0" encoding="utf-8"?>
<!-- Generator: Adobe Illustrator 16.0.2, SVG Export Plug-In . SVG Version: 6.00 Build 0)  -->
<!DOCTYPE svg PUBLIC "-//W3C//DTD SVG 1.1//EN" "http://www.w3.org/Graphics/SVG/1.1/DTD/svg11.dtd">
<svg version="1.1" id="Layer_1" xmlns="http://www.w3.org/2000/svg" xmlns:xlink="http://www.w3.org/1999/xlink" x="0px" y="0px"
	 width="512px" height="512px" viewBox="0 0 512 512" enable-background="new 0 0 512 512" xml:space="preserve">
<path d="M368.453,270.781l-45.25,45.25c-37.438-37.438-98.375-37.406-135.781,0.031l-45.25-45.313
	C204.578,208.438,306.078,208.406,368.453,270.781z M74.297,202.906l45.25,45.25c74.875-74.844,196.688-74.844,271.563,0
	l45.25-45.25C336.578,103.125,174.141,103.125,74.297,202.906z M210.078,338.688l45.25,45.25l45.25-45.25
	C275.578,313.688,235.078,313.688,210.078,338.688z M511.328,256c0,141.375-114.625,256-256,256s-256-114.625-256-256
	s114.625-256,256-256S511.328,114.625,511.328,256z M479.328,256c0-123.5-100.5-224-224-224s-224,100.5-224,224s100.5,224,224,224
	S479.328,379.5,479.328,256z"/>
</svg>
